<?xml version="1.0" encoding="UTF-8" standalone="no"?>
<svg
   width="106"
   height="31"
   viewBox="0 0 106 31"
   fill="none"
   version="1.1"
   id="svg200"
   sodipodi:docname="logos2.svg"
   inkscape:version="1.2.2 (b0a8486541, 2022-12-01)"
   xmlns:inkscape="http://www.inkscape.org/namespaces/inkscape"
   xmlns:sodipodi="http://sodipodi.sourceforge.net/DTD/sodipodi-0.dtd"
   xmlns="http://www.w3.org/2000/svg"
   xmlns:svg="http://www.w3.org/2000/svg">
  <defs
     id="defs204" />
  <sodipodi:namedview
     id="namedview202"
     pagecolor="#ffffff"
     bordercolor="#666666"
     borderopacity="1.0"
     inkscape:showpageshadow="2"
     inkscape:pageopacity="0.0"
     inkscape:pagecheckerboard="0"
     inkscape:deskcolor="#d1d1d1"
     showgrid="false"
     inkscape:zoom="2.8284271"
     inkscape:cx="71.417786"
     inkscape:cy="79.72629"
     inkscape:window-width="1920"
     inkscape:window-height="971"
     inkscape:window-x="0"
     inkscape:window-y="0"
     inkscape:window-maximized="1"
     inkscape:current-layer="g37760" />
  <circle
     cx="-27.597559"
     cy="65.854492"
     fill="#0a7dff"
     id="circle1116"
     r="11.413163"
     style="stroke-width:0.736333" />
  <ellipse
     style="opacity:0.34874;fill:#ffff00;stroke-width:0.00940636"
     id="path4884"
     cx="-24.070976"
     cy="52.640888"
     rx="15.335805"
     ry="7.9798727" />
  <path
     style="opacity:0.197479;fill:#d35f5f;stroke:none;stroke-width:1px;stroke-linecap:butt;stroke-linejoin:miter;stroke-opacity:1"
     d="m -13.989407,48.601695 c 0,0 -11.756356,15.82839 -12.084746,18.38983 -0.328389,2.561441 15.040254,3.480933 15.040254,3.480933 l 2.1673735,-20.228814 z"
     id="path7856" />
  <ellipse
     style="opacity:0.34874;fill:#ffff00;stroke-width:0.00940636"
     id="ellipse9314"
     cx="-34.382412"
     cy="78.715042"
     rx="15.335805"
     ry="7.9798727" />
  <path
     style="opacity:0.197479;fill:#d35f5f;stroke:none;stroke-width:1px;stroke-linecap:butt;stroke-linejoin:miter;stroke-opacity:1"
     d="m -41.97341,83.148307 c 0,0 11.756356,-15.82839 12.084746,-18.38983 0.328389,-2.561441 -15.040254,-3.480933 -15.040254,-3.480933 l -2.167373,20.228814 z"
     id="path10772" />
  <g
     id="g12031"
     transform="matrix(0.76408715,0,0,0.76408715,56.854604,-80.721217)">
    <g
       id="g15222"
       transform="matrix(1.2031704,0,0,1.2031704,3.9550585,-26.986257)">
      <g
         id="g37760"
         inkscape:export-filename="../../../../../../../Users/ridwan/Desktop/zalvice.png"
         inkscape:export-xdpi="1891.9948"
         inkscape:export-ydpi="1891.9948">
        <path
           d="m 37.642831,10.864941 c 0,0.245142 -0.0423,0.486022 -0.126779,0.722636 -0.08449,0.228199 -0.194431,0.414102 -0.329622,0.557823 l -5.869823,7.733458 h 6.161412 v 2.636982 h -10.20563 v -1.445269 c 0,-0.143719 0.03804,-0.325358 0.1141,-0.545145 0.08449,-0.219787 0.198581,-0.426781 0.342301,-0.621212 L 33.649323,12.08201 H 27.640045 V 9.4450395 h 10.002786 z"
           fill="#000000"
           id="path182"
           style="stroke-width:1.15253;fill:#ffffff"
           transform="matrix(1.0877522,0,0,1.0877522,-65.130917,110.23397)" />
        <path
           d="m 46.666659,17.051709 c -0.853677,0.0423 -1.563634,0.118364 -2.129871,0.2282 -0.566237,0.101418 -1.018488,0.236614 -1.356524,0.405689 -0.329624,0.169077 -0.566238,0.363392 -0.709957,0.583179 -0.135192,0.211258 -0.202846,0.443723 -0.202846,0.69728 0,0.507112 0.139457,0.866354 0.418368,1.077612 0.287325,0.211258 0.684602,0.316945 1.191714,0.316945 0.583178,0 1.086026,-0.101417 1.508658,-0.304266 0.431045,-0.211259 0.857826,-0.536732 1.280458,-0.976191 z m -7.124924,-5.793756 c 0.769081,-0.693014 1.618494,-1.208655 2.548238,-1.5466797 0.929743,-0.3465189 1.935439,-0.5197899 3.017316,-0.5197899 0.77761,0 1.470625,0.126778 2.07916,0.380334 0.616947,0.2535556 1.136738,0.6085236 1.559369,1.0649236 0.431046,0.447988 0.760668,0.984604 0.988869,1.61008 0.2282,0.625478 0.342301,1.310079 0.342301,2.053805 v 8.215214 h -1.597404 c -0.329623,0 -0.583179,-0.04645 -0.760668,-0.139455 -0.169076,-0.09301 -0.308532,-0.287325 -0.418367,-0.583179 l -0.278912,-0.836734 c -0.329623,0.287325 -0.650832,0.54088 -0.963513,0.760667 -0.304267,0.219788 -0.621212,0.40569 -0.950835,0.557823 -0.329623,0.143721 -0.684602,0.253557 -1.064935,0.329624 -0.371921,0.07607 -0.790289,0.114099 -1.255102,0.114099 -0.574766,0 -1.098705,-0.07607 -1.572047,-0.228199 -0.473344,-0.152134 -0.883183,-0.376071 -1.229748,-0.671924 -0.338036,-0.304267 -0.60012,-0.680338 -0.786023,-1.128324 -0.185902,-0.447988 -0.278912,-0.963514 -0.278912,-1.546693 0,-0.481756 0.122514,-0.963512 0.367656,-1.445269 0.245143,-0.481756 0.663511,-0.917066 1.255102,-1.305813 0.600122,-0.397276 1.394559,-0.722635 2.383427,-0.976191 0.997282,-0.261969 2.243971,-0.409953 3.739952,-0.443723 v -0.671923 c 0,-0.819793 -0.173226,-1.419914 -0.519791,-1.800248 -0.346564,-0.388748 -0.845148,-0.583179 -1.49598,-0.583179 -0.481756,0 -0.883181,0.05913 -1.20439,0.177489 -0.32121,0.109836 -0.604271,0.232465 -0.849413,0.367657 -0.236614,0.126777 -0.460666,0.249291 -0.671924,0.367655 -0.211258,0.109837 -0.456401,0.164812 -0.735312,0.164812 -0.245143,0 -0.452137,-0.05913 -0.621213,-0.177489 -0.160547,-0.126778 -0.295854,-0.274648 -0.405689,-0.443723 z"
           fill="#000000"
           id="path184"
           style="stroke-width:1.15253;fill:#ffffff"
           transform="matrix(1.0877522,0,0,1.0877522,-65.130917,110.23397)" />
        <path
           d="M 55.707675,3.6132509 V 22.51584 H 52.208602 V 3.6132509 Z"
           fill="#000000"
           id="path186"
           style="stroke-width:1.15253;fill:#ffffff"
           transform="matrix(1.0877522,0,0,1.0877522,-65.130917,110.23397)" />
        <path
           d="M 70.652382,9.4450395 65.517873,22.51584 h -3.16945 L 57.213914,9.4450395 h 2.903216 c 0.253556,0 0.464929,0.059171 0.63389,0.1774891 0.169075,0.11833 0.287441,0.2704864 0.354978,0.4563894 l 2.19326,6.465678 c 0.14372,0.439459 0.270498,0.870504 0.380333,1.293136 0.109952,0.414103 0.20711,0.832471 0.29159,1.255102 0.09301,-0.422631 0.194432,-0.840999 0.304268,-1.255102 0.118364,-0.422632 0.253555,-0.853677 0.405689,-1.293136 l 2.269327,-6.465678 c 0.05924,-0.185903 0.17334,-0.3380594 0.342301,-0.4563894 0.169075,-0.1183184 0.367655,-0.1774891 0.595856,-0.1774891 z"
           fill="#000000"
           id="path188"
           style="stroke-width:1.15253;fill:#ffffff"
           transform="matrix(1.0877522,0,0,1.0877522,-65.130917,110.23397)" />
        <path
           d="M 75.741367,9.4450395 V 22.51584 H 72.242294 V 9.4450395 Z m 0.418368,-3.7145958 c 0,0.2958192 -0.05913,0.5705011 -0.177489,0.824057 -0.118365,0.2535561 -0.278913,0.4775383 -0.481757,0.6719235 -0.194431,0.1943969 -0.42678,0.3465304 -0.69728,0.4564008 -0.261969,0.1098821 -0.545144,0.1648115 -0.849412,0.1648115 -0.287325,0 -0.562088,-0.05493 -0.824057,-0.1648115 C 72.876184,7.5729546 72.652248,7.4208211 72.457817,7.2264242 72.263385,7.032039 72.107103,6.8080568 71.988738,6.5545007 71.878902,6.3009448 71.823926,6.0262629 71.823926,5.7304437 c 0,-0.2958077 0.05498,-0.570501 0.164812,-0.8240571 0.118365,-0.2620041 0.274647,-0.4902045 0.469079,-0.6846013 0.194431,-0.1943852 0.418367,-0.3465189 0.671923,-0.4564008 0.261969,-0.1098704 0.536732,-0.1648114 0.824057,-0.1648114 0.304268,0 0.587443,0.054941 0.849412,0.1648114 0.2705,0.1098819 0.502849,0.2620156 0.69728,0.4564008 0.202844,0.1943968 0.363392,0.4225972 0.481757,0.6846013 0.118364,0.2535561 0.177489,0.5282494 0.177489,0.8240571 z"
           fill="#000000"
           id="path190"
           style="stroke-width:1.15253;fill:#ffffff"
           transform="matrix(1.0877522,0,0,1.0877522,-65.130917,110.23397)" />
        <path
           d="m 87.710445,12.360922 c -0.101418,0.135192 -0.202844,0.240878 -0.304266,0.316945 -0.101428,0.06766 -0.245143,0.101428 -0.431046,0.101428 -0.169076,0 -0.333887,-0.04645 -0.494434,-0.139457 -0.152134,-0.101417 -0.329623,-0.207108 -0.532467,-0.316945 -0.202846,-0.118364 -0.443724,-0.223935 -0.722635,-0.316944 -0.278912,-0.101418 -0.625477,-0.152134 -1.03958,-0.152134 -0.524054,0 -0.980455,0.09716 -1.369202,0.29159 -0.380335,0.185902 -0.69728,0.4564 -0.950836,0.811378 -0.253556,0.35498 -0.443723,0.786025 -0.570501,1.293136 -0.118364,0.507112 -0.177489,1.077614 -0.177489,1.711504 0,1.335433 0.266234,2.35807 0.798702,3.068027 0.54088,0.709957 1.276193,1.064936 2.205937,1.064936 0.321094,0 0.595856,-0.02536 0.824057,-0.07607 0.236614,-0.05913 0.439459,-0.131042 0.608534,-0.215523 0.17749,-0.08449 0.329623,-0.177488 0.456401,-0.278911 0.126778,-0.101428 0.245028,-0.194431 0.354979,-0.278912 0.118249,-0.08449 0.23235,-0.152133 0.3423,-0.202844 0.11825,-0.05913 0.249292,-0.08875 0.393012,-0.08875 0.270383,0 0.481756,0.101428 0.63389,0.304268 l 1.001547,1.26778 c -0.371921,0.431046 -0.769197,0.790288 -1.191714,1.077613 -0.422632,0.278911 -0.862091,0.502848 -1.318491,0.671923 -0.447987,0.160547 -0.904389,0.270498 -1.369202,0.329624 -0.464931,0.06766 -0.92548,0.101417 -1.381881,0.101417 -0.802966,0 -1.563634,-0.147868 -2.282004,-0.443722 -0.718485,-0.304268 -1.348111,-0.743726 -1.888993,-1.318492 -0.540996,-0.574766 -0.972041,-1.280457 -1.293135,-2.117193 -0.312796,-0.836734 -0.469079,-1.791834 -0.469079,-2.865183 0,-0.955099 0.139456,-1.842545 0.418368,-2.662338 0.278911,-0.819792 0.68875,-1.52975 1.229746,-2.12987 0.540882,-0.600122 1.208541,-1.069201 2.003093,-1.407225 0.80285,-0.3465186 1.72833,-0.5197896 2.776438,-0.5197896 0.997282,0 1.872051,0.1605931 2.624305,0.4817564 0.75214,0.3211972 1.428327,0.7860122 2.028449,1.3945462 z"
           fill="#000000"
           id="path192"
           style="stroke-width:1.15253;fill:#ffffff"
           transform="matrix(1.0877522,0,0,1.0877522,-65.130917,110.23397)" />
        <path
           d="m 98.452972,14.440081 c 0,-0.363392 -0.05071,-0.709957 -0.152134,-1.039579 -0.09335,-0.329623 -0.245488,-0.621212 -0.4564,-0.874769 -0.212065,-0.253556 -0.478299,-0.452136 -0.798702,-0.595856 -0.321555,-0.152134 -0.706499,-0.228201 -1.15368,-0.228201 -0.837311,0 -1.492292,0.236614 -1.965635,0.709958 -0.473228,0.473342 -0.781759,1.149415 -0.92548,2.028447 z M 92.95023,16.51924 c 0.109951,1.225483 0.456401,2.121458 1.03958,2.687695 0.591708,0.566236 1.360789,0.849413 2.307936,0.849413 0.481756,0 0.895514,-0.05498 1.242425,-0.164812 0.354978,-0.118365 0.662703,-0.245143 0.925478,-0.380334 0.269692,-0.14372 0.51057,-0.270498 0.722636,-0.380334 0.218975,-0.118364 0.434505,-0.17749 0.646565,-0.17749 0.26969,0 0.48176,0.101428 0.63389,0.304268 l 1.01422,1.26778 c -0.37226,0.431046 -0.78255,0.790288 -1.22974,1.077613 -0.44833,0.278912 -0.912802,0.502848 -1.394559,0.671923 -0.481756,0.160548 -0.968122,0.270498 -1.457947,0.329624 -0.490976,0.06766 -0.963512,0.101417 -1.419913,0.101417 -0.913378,0 -1.76694,-0.147868 -2.561492,-0.443722 -0.786023,-0.304268 -1.474775,-0.74799 -2.066482,-1.331169 -0.583179,-0.591593 -1.043728,-1.322756 -1.38188,-2.19326 -0.338037,-0.870504 -0.507112,-1.880579 -0.507112,-3.029994 0,-0.887447 0.14372,-1.724181 0.431045,-2.510205 0.295853,-0.786023 0.718485,-1.470625 1.26778,-2.053804 0.54941,-0.583179 1.217069,-1.043844 2.003093,-1.381869 0.786023,-0.3465185 1.67347,-0.5197895 2.662914,-0.5197895 0.836736,0 1.605471,0.1352375 2.30736,0.4056897 0.709957,0.2619578 1.318493,0.6465568 1.825603,1.1536678 0.51518,0.507112 0.91281,1.132589 1.19171,1.876315 0.28698,0.735312 0.43105,1.576312 0.43105,2.522883 0,0.261969 -0.0127,0.477492 -0.038,0.646567 -0.0254,0.169076 -0.068,0.304267 -0.12678,0.40569 -0.06,0.101418 -0.13945,0.173225 -0.24088,0.215522 -0.10139,0.03377 -0.23281,0.05071 -0.39301,0.05071 z"
           fill="#000000"
           id="path194"
           style="stroke-width:1.15253;fill:#ffffff"
           transform="matrix(1.0877522,0,0,1.0877522,-65.130917,110.23397)" />
        <g
           id="g37782"
           inkscape:export-filename="../../../../../../../Users/ridwan/Desktop/zalvice2.png"
           inkscape:export-xdpi="18299.031"
           inkscape:export-ydpi="18299.031"
           style="fill:#ffffff">
          <path
             id="path12023"
             style="opacity:1;fill:#ffffff;fill-opacity:1;stroke-width:0.00940636"
             d="m -53.605469,115.74414 a 11.413163,11.413163 0 0 0 -8.076172,3.39063 15.335805,7.9798727 0 0 0 11.603516,2.78906 15.335805,7.9798727 0 0 0 6.222656,-0.69922 11.413163,11.413163 0 0 0 -9.75,-5.48047 z" />
          <path
             id="path12025"
             style="opacity:1;fill:#ffffff;fill-opacity:1;stroke:none;stroke-width:1px;stroke-linecap:butt;stroke-linejoin:miter;stroke-opacity:1"
             d="m -46.167969,118.50391 c -2.89574,4.17093 -5.754517,8.54656 -5.914062,9.79101 -0.189087,1.47489 4.822408,2.4037 9.111328,2.92774 a 11.413163,11.413163 0 0 0 0.779297,-4.06641 11.413163,11.413163 0 0 0 -3.976563,-8.65234 z" />
          <path
             id="path12029"
             style="opacity:1;fill:#ffffff;fill-opacity:1;stroke:none;stroke-width:1px;stroke-linecap:butt;stroke-linejoin:miter;stroke-opacity:1"
             d="m -64.287109,123.22461 a 11.413163,11.413163 0 0 0 -0.730469,3.93164 11.413163,11.413163 0 0 0 3.535156,8.22266 c 2.78006,-4.02392 5.432411,-8.12085 5.585938,-9.31836 0.178565,-1.39282 -4.281359,-2.29794 -8.390625,-2.83594 z" />
          <path
             id="path13732"
             style="opacity:1;fill:#ffffff;fill-opacity:1;stroke-width:0.00940636"
             d="m -53.569976,138.58916 a 11.413163,11.413163 0 0 0 8.076172,-3.39063 15.335805,7.9798727 0 0 0 -11.603516,-2.78906 15.335805,7.9798727 0 0 0 -6.222656,0.69922 11.413163,11.413163 0 0 0 9.75,5.48047 z" />
        </g>
      </g>
    </g>
  </g>
  <text
     xml:space="preserve"
     style="font-size:139.873px;line-height:1.25;font-family:sans-serif;-inkscape-font-specification:'sans-serif, Normal'"
     x="31.643028"
     y="26.870058"
     id="text28038"><tspan
       sodipodi:role="line"
       id="tspan28036"
       x="31.643028"
       y="26.870058" /></text>
</svg>
